<?xml version="1.0" standalone="no"?>
<!DOCTYPE svg PUBLIC "-//W3C//DTD SVG 20010904//EN"
 "http://www.w3.org/TR/2001/REC-SVG-20010904/DTD/svg10.dtd">
<svg version="1.0" xmlns="http://www.w3.org/2000/svg"
 width="1021.000000pt" height="160.000000pt" viewBox="0 0 1021.000000 160.000000"
 preserveAspectRatio="xMidYMid meet">
<metadata>
Created by potrace 1.15, written by Peter Selinger 2001-2017
</metadata>
<g transform="translate(0.000000,160.000000) scale(0.100000,-0.100000)"
fill="#000000" stroke="none">
<path d="M7143 1255 c-50 -21 -66 -56 -71 -151 l-5 -84 -43 0 -44 0 0 -40 0
-40 45 0 45 0 0 -275 0 -275 55 0 55 0 0 275 0 275 50 0 50 0 0 40 0 40 -50 0
-50 0 0 59 c0 70 15 91 66 91 l34 0 0 50 0 50 -52 0 c-29 -1 -67 -7 -85 -15z"/>
<path d="M80 825 l0 -435 55 0 55 0 0 435 0 435 -55 0 -55 0 0 -435z"/>
<path d="M1880 1110 c0 -82 -4 -150 -8 -150 -5 0 -19 11 -32 25 -50 54 -179
66 -259 26 -53 -28 -105 -89 -131 -157 -19 -47 -24 -79 -24 -159 0 -89 3 -107
27 -160 35 -75 69 -111 132 -141 90 -43 189 -28 261 38 l44 41 0 -42 0 -41 45
0 45 0 0 435 0 435 -50 0 -50 0 0 -150z m-101 -185 c39 -20 78 -69 91 -113 15
-55 12 -173 -5 -223 -52 -145 -217 -169 -292 -42 -22 39 -28 61 -31 134 -7
133 30 217 108 248 37 15 97 13 129 -4z"/>
<path d="M3990 825 l0 -435 54 0 55 0 3 218 c3 198 5 220 24 252 44 75 171
107 229 58 38 -33 44 -79 45 -315 l0 -213 56 0 56 0 -4 253 c-3 172 -8 261
-17 282 -30 72 -102 114 -194 115 -68 0 -120 -19 -164 -62 l-33 -32 0 157 0
157 -55 0 -55 0 0 -435z"/>
<path d="M7520 1109 l0 -91 -40 4 -40 4 0 -43 0 -43 39 0 40 0 3 -237 c3 -202
6 -243 20 -269 25 -45 97 -66 166 -48 18 5 22 13 22 50 l0 44 -38 0 c-21 0
-43 5 -50 12 -9 9 -12 74 -12 230 l0 218 50 0 50 0 0 39 0 40 -47 3 -48 3 -3
88 -3 87 -54 0 -55 0 0 -91z"/>
<path d="M417 1025 c-66 -25 -114 -71 -149 -143 -31 -64 -33 -72 -33 -182 0
-130 18 -185 78 -248 59 -62 100 -77 207 -77 110 0 152 17 212 83 58 64 81
139 82 262 0 116 -19 177 -72 233 -56 59 -108 81 -201 84 -58 2 -99 -2 -124
-12z m176 -89 c74 -31 110 -104 109 -221 0 -90 -27 -178 -65 -212 -60 -55
-164 -54 -226 2 -112 102 -85 375 43 431 40 17 98 18 139 0z"/>
<path d="M1098 1028 c-20 -5 -54 -25 -76 -44 -22 -19 -43 -34 -46 -34 -3 0 -6
15 -6 34 0 34 0 34 -50 38 l-50 3 0 -317 0 -318 55 0 55 0 0 210 c0 190 2 215
20 250 28 55 72 83 140 88 52 4 60 1 90 -25 43 -38 49 -77 49 -325 l1 -198 50
0 50 0 0 253 c0 223 -3 257 -19 292 -10 22 -28 48 -39 58 -47 42 -142 57 -224
35z"/>
<path d="M2212 1028 c-47 -16 -119 -83 -147 -137 -68 -136 -54 -330 32 -430
49 -58 103 -83 189 -89 145 -9 246 50 295 176 31 77 34 253 6 322 -22 54 -78
114 -132 143 -47 24 -189 33 -243 15z m188 -100 c68 -35 95 -96 94 -213 -1
-137 -46 -224 -128 -246 -58 -16 -121 -3 -161 32 -48 42 -70 107 -70 204 0 69
4 89 30 140 24 49 38 64 75 83 24 12 60 22 80 22 20 0 56 -10 80 -22z"/>
<path d="M2900 1031 c-40 -13 -84 -37 -104 -60 -27 -30 -36 -26 -36 17 l0 37
-50 -3 -50 -4 0 -314 0 -314 55 0 55 0 0 204 c0 120 4 216 11 233 13 34 55 80
91 99 35 18 101 18 137 -1 53 -27 61 -70 61 -315 l0 -220 56 0 56 0 -4 253
c-4 274 -9 299 -63 350 -44 40 -147 58 -215 38z"/>
<path d="M4736 1025 c-63 -22 -108 -66 -146 -140 -34 -68 -35 -72 -35 -190 0
-111 2 -124 28 -177 47 -96 136 -148 252 -148 121 0 212 55 262 158 23 48 28
73 31 163 6 143 -12 204 -76 268 -30 30 -66 54 -97 64 -58 20 -165 21 -219 2z
m166 -85 c46 -13 94 -67 109 -122 19 -71 8 -194 -23 -261 -23 -48 -34 -61 -70
-77 -57 -26 -104 -25 -158 2 -62 32 -94 96 -99 200 -8 191 92 299 241 258z"/>
<path d="M5395 1021 c-22 -10 -51 -30 -64 -45 -32 -35 -41 -33 -41 9 l0 35
-50 0 -50 0 0 -315 0 -315 49 0 49 0 4 208 c5 246 14 277 85 319 36 21 53 25
90 20 85 -9 92 -34 93 -329 l0 -218 55 0 55 0 0 223 c0 204 2 225 20 255 44
72 141 95 199 46 l31 -26 0 -249 0 -249 61 0 61 0 -4 253 c-3 245 -4 253 -28
302 -30 59 -68 84 -142 92 -72 7 -131 -11 -179 -54 l-41 -37 -24 31 c-46 60
-151 80 -229 44z"/>
<path d="M6282 1021 c-136 -47 -214 -204 -192 -386 22 -182 152 -283 333 -261
103 13 200 95 223 189 6 27 6 27 -49 27 -49 0 -55 -2 -61 -24 -8 -33 -68 -83
-116 -96 -106 -29 -197 38 -216 159 l-7 41 233 0 233 0 -5 85 c-10 149 -70
234 -191 270 -66 20 -120 18 -185 -4z m178 -96 c35 -18 60 -48 76 -92 27 -77
35 -73 -162 -73 l-176 0 7 33 c15 69 68 131 123 143 15 3 32 7 37 9 16 4 68
-7 95 -20z"/>
<path d="M7986 1025 c-21 -7 -56 -27 -77 -45 l-39 -31 0 36 0 35 -55 0 -55 0
2 -312 3 -313 53 -3 52 -3 0 193 c0 106 5 210 10 230 22 76 87 128 162 128 57
0 89 -18 110 -60 16 -30 18 -66 18 -262 l0 -228 55 0 55 0 0 236 c0 265 -7
310 -55 358 -53 53 -156 71 -239 41z"/>
<path d="M8529 1025 c-63 -20 -132 -84 -166 -153 -26 -53 -28 -66 -28 -177 0
-106 3 -125 24 -165 52 -100 126 -150 232 -158 125 -9 225 41 274 139 37 71
34 79 -25 79 -44 0 -51 -3 -64 -27 -49 -94 -164 -127 -253 -73 -33 20 -68 83
-78 143 l-7 37 232 0 233 0 -6 88 c-8 133 -46 201 -139 248 -63 32 -163 40
-229 19z m147 -90 c52 -10 114 -94 114 -155 0 -19 -6 -20 -170 -20 l-170 0 0
25 c0 81 107 175 180 160 8 -2 29 -6 46 -10z"/>
<path d="M9088 1030 c-84 -25 -136 -87 -145 -172 -10 -100 48 -149 230 -194
153 -38 189 -72 152 -143 -17 -35 -78 -61 -140 -61 -81 0 -140 37 -151 97 -6
33 -7 33 -60 33 l-53 0 5 -32 c10 -55 48 -122 83 -145 46 -31 94 -43 176 -43
120 0 191 32 232 105 30 52 31 146 4 191 -24 39 -59 55 -199 93 -124 34 -145
44 -163 78 -33 61 36 118 132 110 68 -6 104 -28 121 -73 11 -32 14 -34 60 -34
44 0 48 2 48 24 0 69 -59 139 -134 161 -53 16 -154 18 -198 5z"/>
<path d="M9618 1030 c-84 -25 -136 -87 -145 -172 -10 -100 48 -149 230 -194
153 -38 189 -72 152 -143 -17 -35 -78 -61 -140 -61 -81 0 -140 37 -151 97 -6
33 -7 33 -60 33 l-53 0 5 -32 c10 -55 48 -122 83 -145 46 -31 94 -43 176 -43
120 0 191 32 232 105 30 52 31 146 4 191 -24 39 -59 55 -199 93 -124 34 -145
44 -163 78 -33 61 36 118 132 110 68 -6 104 -28 121 -73 11 -32 14 -34 60 -34
44 0 48 2 48 24 0 69 -59 139 -134 161 -53 16 -154 18 -198 5z"/>
<path d="M7310 705 l0 -315 55 0 55 0 0 315 0 315 -55 0 -55 0 0 -315z"/>
<path d="M6690 725 l0 -55 150 0 150 0 0 55 0 55 -150 0 -150 0 0 -55z"/>
<path d="M3250 430 l0 -30 335 0 335 0 0 30 0 30 -335 0 -335 0 0 -30z"/>
</g>
</svg>
